<?xml version="1.0" encoding="utf-8" standalone="no"?>
<!DOCTYPE svg PUBLIC "-//W3C//DTD SVG 1.1//EN"
  "http://www.w3.org/Graphics/SVG/1.1/DTD/svg11.dtd">
<!-- Created with matplotlib (http://matplotlib.sourceforge.net/) -->
<svg height="442pt" version="1.1" viewBox="0 0 586 442" width="586pt" xmlns="http://www.w3.org/2000/svg" xmlns:xlink="http://www.w3.org/1999/xlink">
 <defs>
  <style type="text/css">
*{stroke-linecap:square;stroke-linejoin:round;}
  </style>
 </defs>
 <g id="figure_1">
  <g id="patch_1">
   <path d="
M0 442.8
L586.8 442.8
L586.8 0
L0 0
z
" style="fill:#ffffff;"/>
  </g>
  <g id="axes_1">
   <g id="patch_2">
    <path d="
M73.35 398.52
L528.12 398.52
L528.12 44.28
L73.35 44.28
z
" style="fill:#ffffff;"/>
   </g>
   <g id="line2d_1">
    <path clip-path="url(#p9061672a36)" d="
M94.0214 382.418
L98.1974 370.315
L102.373 358.212
L106.549 346.108
L110.725 334.005
L114.902 321.902
L119.078 309.798
L123.254 297.695
L127.43 285.592
L131.606 273.488
L135.782 261.385
L139.958 249.282
L144.134 237.178
L148.31 228.752
L152.486 222.531
L156.662 216.31
L160.838 210.089
L165.014 203.869
L169.19 197.648
L173.366 191.966
L177.542 186.978
L181.718 181.99
L185.894 177.001
L190.07 172.013
L194.246 167.025
L198.422 162.26
L202.598 158.164
L206.774 154.069
L210.95 149.974
L215.126 145.878
L219.302 141.783
L223.478 137.853
L227.654 136.408
L231.83 134.962
L236.006 133.516
L240.183 132.07
L244.359 130.625
L248.535 129.179
L252.711 127.733
L256.887 126.287
L261.063 124.842
L265.239 123.396
L269.415 121.95
L273.591 120.505
L277.767 119.059
L281.943 117.613
L286.119 116.167
L290.295 114.722
L294.471 113.276
L298.647 111.83
L302.823 110.595
L306.999 109.57
L311.175 108.545
L315.351 107.521
L319.527 106.496
L323.703 105.471
L327.879 104.446
L332.055 103.422
L336.231 102.397
L340.407 101.372
L344.583 100.347
L348.759 99.3227
L352.935 98.2979
L357.111 97.2731
L361.287 96.2484
L365.464 95.2236
L369.64 94.1989
L373.816 93.1741
L377.992 92.1493
L382.168 91.1246
L386.344 90.0998
L390.52 89.0751
L394.696 88.0503
L398.872 87.0256
L403.048 86.0008
L407.224 84.976
L411.4 83.9513
L415.576 82.9265
L419.752 81.9018
L423.928 80.877
L428.104 79.8522
L432.28 78.8275
L436.456 77.8027
L440.632 76.778
L444.808 75.7532
L448.984 74.7284
L453.16 73.7037
L457.336 72.6789
L461.512 71.6542
L465.688 70.6294
L469.864 69.6046
L474.04 68.5799
L478.216 67.5551
L482.392 66.5304
L486.568 65.5056
L490.745 64.4809
L494.921 63.4561
L499.097 62.4313
L503.273 61.4066
L507.449 60.3818" style="fill:none;stroke:#0000ff;"/>
   </g>
   <g id="line2d_2">
    <path clip-path="url(#p9061672a36)" d="
M94.0214 382.418
L98.1974 366.21
L102.373 350.002
L106.549 333.794
L110.725 317.586
L114.902 301.378
L119.078 285.17
L123.254 272.13
L127.43 259.82
L131.606 247.511
L135.782 235.201
L139.958 222.891
L144.134 210.582
L148.31 201.839
L152.486 195.237
L156.662 188.635
L160.838 182.033
L165.014 175.431
L169.19 168.829
L173.366 163.306
L177.542 159.169
L181.718 155.032
L185.894 150.895
L190.07 146.758
L194.246 142.62
L198.422 139.006
L202.598 136.961
L206.774 134.916
L210.95 132.871
L215.126 130.826
L219.302 128.781
L223.478 126.736
L227.654 124.691
L231.83 122.646
L236.006 120.601
L240.183 118.556
L244.359 116.511
L248.535 114.466
L252.711 113.109
L256.887 111.85
L261.063 110.59
L265.239 109.331
L269.415 108.072
L273.591 106.813
L277.767 105.851
L281.943 105.024
L286.119 104.197
L290.295 103.371
L294.471 102.544
L298.647 101.717
L302.823 100.891
L306.999 100.064
L311.175 99.2372
L315.351 98.4105
L319.527 97.5838
L323.703 96.7571
L327.879 95.9304
L332.055 95.1037
L336.231 94.277
L340.407 93.4503
L344.583 92.6235
L348.759 91.7968
L352.935 90.9701
L357.111 90.1434
L361.287 89.3167
L365.464 88.49
L369.64 87.6633
L373.816 86.8366
L377.992 86.0099
L382.168 85.1831
L386.344 84.3564
L390.52 83.5297
L394.696 82.703
L398.872 81.8763
L403.048 81.0496
L407.224 80.2229
L411.4 79.3962
L415.576 78.5695
L419.752 77.7427
L423.928 76.916
L428.104 76.0893
L432.28 75.2626
L436.456 74.4359
L440.632 73.6092
L444.808 72.7825
L448.984 71.9558
L453.16 71.1291
L457.336 70.3023
L461.512 69.4756
L465.688 68.6489
L469.864 67.8222
L474.04 66.9955
L478.216 66.1688
L482.392 65.3421
L486.568 64.5154
L490.745 63.6887
L494.921 62.862
L499.097 62.0352
L503.273 61.2085
L507.449 60.3818" style="fill:none;stroke:#008000;"/>
   </g>
   <g id="line2d_3">
    <path clip-path="url(#p9061672a36)" d="
M94.0214 382.418
L98.1974 361.697
L102.373 340.975
L106.549 320.253
L110.725 299.532
L114.902 278.81
L119.078 258.089
L123.254 243.702
L127.43 230.777
L131.606 217.852
L135.782 204.928
L139.958 192.003
L144.134 179.078
L148.31 171.019
L152.486 165.879
L156.662 160.739
L160.838 155.6
L165.014 150.46
L169.19 145.32
L173.366 141.369
L177.542 138.945
L181.718 136.521
L185.894 134.098
L190.07 131.674
L194.246 129.251
L198.422 127.05
L202.598 125.52
L206.774 123.989
L210.95 122.458
L215.126 120.928
L219.302 119.397
L223.478 117.909
L227.654 117.063
L231.83 116.217
L236.006 115.371
L240.183 114.525
L244.359 113.679
L248.535 112.833
L252.711 111.987
L256.887 111.141
L261.063 110.295
L265.239 109.449
L269.415 108.603
L273.591 107.757
L277.767 106.911
L281.943 106.065
L286.119 105.219
L290.295 104.373
L294.471 103.527
L298.647 102.681
L302.823 101.835
L306.999 100.989
L311.175 100.143
L315.351 99.2973
L319.527 98.4513
L323.703 97.6053
L327.879 96.7593
L332.055 95.9133
L336.231 95.0673
L340.407 94.2213
L344.583 93.3753
L348.759 92.5294
L352.935 91.6834
L357.111 90.8374
L361.287 89.9914
L365.464 89.1454
L369.64 88.2994
L373.816 87.4534
L377.992 86.6074
L382.168 85.7615
L386.344 84.9155
L390.52 84.0695
L394.696 83.2235
L398.872 82.3775
L403.048 81.5315
L407.224 80.6855
L411.4 79.8395
L415.576 78.9936
L419.752 78.1476
L423.928 77.3016
L428.104 76.4556
L432.28 75.6096
L436.456 74.7636
L440.632 73.9176
L444.808 73.0716
L448.984 72.2256
L453.16 71.3797
L457.336 70.5337
L461.512 69.6877
L465.688 68.8417
L469.864 67.9957
L474.04 67.1497
L478.216 66.3037
L482.392 65.4577
L486.568 64.6118
L490.745 63.7658
L494.921 62.9198
L499.097 62.0738
L503.273 61.2278
L507.449 60.3818" style="fill:none;stroke:#ff0000;"/>
   </g>
   <g id="line2d_4">
    <path clip-path="url(#p9061672a36)" d="
M94.0214 382.418
L507.449 60.3818" style="fill:none;stroke:#999999;stroke-dasharray:6.000000,6.000000;stroke-dashoffset:0.0;stroke-linecap:butt;"/>
   </g>
   <g id="matplotlib.axis_1">
    <g id="xtick_1">
     <g id="line2d_5">
      <defs>
       <path d="
M0 0
L0 -4" id="me87fc43251"/>
      </defs>
      <g>
       <use style="stroke:#000000;stroke-linecap:butt;stroke-width:0.5;" x="94.0213636364" xlink:href="#me87fc43251" y="398.52"/>
      </g>
     </g>
     <g id="line2d_6">
      <defs>
       <path d="
M0 0
L0 4" id="m5bbe44d1da"/>
      </defs>
      <g>
       <use style="stroke:#000000;stroke-linecap:butt;stroke-width:0.5;" x="94.0213636364" xlink:href="#m5bbe44d1da" y="44.28"/>
      </g>
     </g>
     <g id="text_1">
      <!-- 0.0 -->
      <defs>
       <path d="
M31.7812 66.4062
Q24.1719 66.4062 20.3281 58.9062
Q16.5 51.4219 16.5 36.375
Q16.5 21.3906 20.3281 13.8906
Q24.1719 6.39062 31.7812 6.39062
Q39.4531 6.39062 43.2812 13.8906
Q47.125 21.3906 47.125 36.375
Q47.125 51.4219 43.2812 58.9062
Q39.4531 66.4062 31.7812 66.4062
M31.7812 74.2188
Q44.0469 74.2188 50.5156 64.5156
Q56.9844 54.8281 56.9844 36.375
Q56.9844 17.9688 50.5156 8.26562
Q44.0469 -1.42188 31.7812 -1.42188
Q19.5312 -1.42188 13.0625 8.26562
Q6.59375 17.9688 6.59375 36.375
Q6.59375 54.8281 13.0625 64.5156
Q19.5312 74.2188 31.7812 74.2188" id="BitstreamVeraSans-Roman-30"/>
       <path d="
M10.6875 12.4062
L21 12.4062
L21 0
L10.6875 0
z
" id="BitstreamVeraSans-Roman-2e"/>
      </defs>
      <g transform="translate(85.2735511364 411.42625)scale(0.12 -0.12)">
       <use xlink:href="#BitstreamVeraSans-Roman-30"/>
       <use x="63.623046875" xlink:href="#BitstreamVeraSans-Roman-2e"/>
       <use x="95.41015625" xlink:href="#BitstreamVeraSans-Roman-30"/>
      </g>
     </g>
    </g>
    <g id="xtick_2">
     <g id="line2d_7">
      <defs>
       <path d="
M0 0
L0 -4" id="me87fc43251"/>
      </defs>
      <g>
       <use style="stroke:#000000;stroke-linecap:butt;stroke-width:0.5;" x="176.706818182" xlink:href="#me87fc43251" y="398.52"/>
      </g>
     </g>
     <g id="line2d_8">
      <defs>
       <path d="
M0 0
L0 4" id="m5bbe44d1da"/>
      </defs>
      <g>
       <use style="stroke:#000000;stroke-linecap:butt;stroke-width:0.5;" x="176.706818182" xlink:href="#m5bbe44d1da" y="44.28"/>
      </g>
     </g>
     <g id="text_2">
      <!-- 0.2 -->
      <defs>
       <path d="
M19.1875 8.29688
L53.6094 8.29688
L53.6094 0
L7.32812 0
L7.32812 8.29688
Q12.9375 14.1094 22.625 23.8906
Q32.3281 33.6875 34.8125 36.5312
Q39.5469 41.8438 41.4219 45.5312
Q43.3125 49.2188 43.3125 52.7812
Q43.3125 58.5938 39.2344 62.25
Q35.1562 65.9219 28.6094 65.9219
Q23.9688 65.9219 18.8125 64.3125
Q13.6719 62.7031 7.8125 59.4219
L7.8125 69.3906
Q13.7656 71.7812 18.9375 73
Q24.125 74.2188 28.4219 74.2188
Q39.75 74.2188 46.4844 68.5469
Q53.2188 62.8906 53.2188 53.4219
Q53.2188 48.9219 51.5312 44.8906
Q49.8594 40.875 45.4062 35.4062
Q44.1875 33.9844 37.6406 27.2188
Q31.1094 20.4531 19.1875 8.29688" id="BitstreamVeraSans-Roman-32"/>
      </defs>
      <g transform="translate(168.161505682 411.42625)scale(0.12 -0.12)">
       <use xlink:href="#BitstreamVeraSans-Roman-30"/>
       <use x="63.623046875" xlink:href="#BitstreamVeraSans-Roman-2e"/>
       <use x="95.41015625" xlink:href="#BitstreamVeraSans-Roman-32"/>
      </g>
     </g>
    </g>
    <g id="xtick_3">
     <g id="line2d_9">
      <defs>
       <path d="
M0 0
L0 -4" id="me87fc43251"/>
      </defs>
      <g>
       <use style="stroke:#000000;stroke-linecap:butt;stroke-width:0.5;" x="259.392272727" xlink:href="#me87fc43251" y="398.52"/>
      </g>
     </g>
     <g id="line2d_10">
      <defs>
       <path d="
M0 0
L0 4" id="m5bbe44d1da"/>
      </defs>
      <g>
       <use style="stroke:#000000;stroke-linecap:butt;stroke-width:0.5;" x="259.392272727" xlink:href="#m5bbe44d1da" y="44.28"/>
      </g>
     </g>
     <g id="text_3">
      <!-- 0.4 -->
      <defs>
       <path d="
M37.7969 64.3125
L12.8906 25.3906
L37.7969 25.3906
z

M35.2031 72.9062
L47.6094 72.9062
L47.6094 25.3906
L58.0156 25.3906
L58.0156 17.1875
L47.6094 17.1875
L47.6094 0
L37.7969 0
L37.7969 17.1875
L4.89062 17.1875
L4.89062 26.7031
z
" id="BitstreamVeraSans-Roman-34"/>
      </defs>
      <g transform="translate(250.582585227 411.42625)scale(0.12 -0.12)">
       <use xlink:href="#BitstreamVeraSans-Roman-30"/>
       <use x="63.623046875" xlink:href="#BitstreamVeraSans-Roman-2e"/>
       <use x="95.41015625" xlink:href="#BitstreamVeraSans-Roman-34"/>
      </g>
     </g>
    </g>
    <g id="xtick_4">
     <g id="line2d_11">
      <defs>
       <path d="
M0 0
L0 -4" id="me87fc43251"/>
      </defs>
      <g>
       <use style="stroke:#000000;stroke-linecap:butt;stroke-width:0.5;" x="342.077727273" xlink:href="#me87fc43251" y="398.52"/>
      </g>
     </g>
     <g id="line2d_12">
      <defs>
       <path d="
M0 0
L0 4" id="m5bbe44d1da"/>
      </defs>
      <g>
       <use style="stroke:#000000;stroke-linecap:butt;stroke-width:0.5;" x="342.077727273" xlink:href="#m5bbe44d1da" y="44.28"/>
      </g>
     </g>
     <g id="text_4">
      <!-- 0.6 -->
      <defs>
       <path d="
M33.0156 40.375
Q26.375 40.375 22.4844 35.8281
Q18.6094 31.2969 18.6094 23.3906
Q18.6094 15.5312 22.4844 10.9531
Q26.375 6.39062 33.0156 6.39062
Q39.6562 6.39062 43.5312 10.9531
Q47.4062 15.5312 47.4062 23.3906
Q47.4062 31.2969 43.5312 35.8281
Q39.6562 40.375 33.0156 40.375
M52.5938 71.2969
L52.5938 62.3125
Q48.875 64.0625 45.0938 64.9844
Q41.3125 65.9219 37.5938 65.9219
Q27.8281 65.9219 22.6719 59.3281
Q17.5312 52.7344 16.7969 39.4062
Q19.6719 43.6562 24.0156 45.9219
Q28.375 48.1875 33.5938 48.1875
Q44.5781 48.1875 50.9531 41.5156
Q57.3281 34.8594 57.3281 23.3906
Q57.3281 12.1562 50.6875 5.35938
Q44.0469 -1.42188 33.0156 -1.42188
Q20.3594 -1.42188 13.6719 8.26562
Q6.98438 17.9688 6.98438 36.375
Q6.98438 53.6562 15.1875 63.9375
Q23.3906 74.2188 37.2031 74.2188
Q40.9219 74.2188 44.7031 73.4844
Q48.4844 72.75 52.5938 71.2969" id="BitstreamVeraSans-Roman-36"/>
      </defs>
      <g transform="translate(333.309289773 411.42625)scale(0.12 -0.12)">
       <use xlink:href="#BitstreamVeraSans-Roman-30"/>
       <use x="63.623046875" xlink:href="#BitstreamVeraSans-Roman-2e"/>
       <use x="95.41015625" xlink:href="#BitstreamVeraSans-Roman-36"/>
      </g>
     </g>
    </g>
    <g id="xtick_5">
     <g id="line2d_13">
      <defs>
       <path d="
M0 0
L0 -4" id="me87fc43251"/>
      </defs>
      <g>
       <use style="stroke:#000000;stroke-linecap:butt;stroke-width:0.5;" x="424.763181818" xlink:href="#me87fc43251" y="398.52"/>
      </g>
     </g>
     <g id="line2d_14">
      <defs>
       <path d="
M0 0
L0 4" id="m5bbe44d1da"/>
      </defs>
      <g>
       <use style="stroke:#000000;stroke-linecap:butt;stroke-width:0.5;" x="424.763181818" xlink:href="#m5bbe44d1da" y="44.28"/>
      </g>
     </g>
     <g id="text_5">
      <!-- 0.8 -->
      <defs>
       <path d="
M31.7812 34.625
Q24.75 34.625 20.7188 30.8594
Q16.7031 27.0938 16.7031 20.5156
Q16.7031 13.9219 20.7188 10.1562
Q24.75 6.39062 31.7812 6.39062
Q38.8125 6.39062 42.8594 10.1719
Q46.9219 13.9688 46.9219 20.5156
Q46.9219 27.0938 42.8906 30.8594
Q38.875 34.625 31.7812 34.625
M21.9219 38.8125
Q15.5781 40.375 12.0312 44.7188
Q8.5 49.0781 8.5 55.3281
Q8.5 64.0625 14.7188 69.1406
Q20.9531 74.2188 31.7812 74.2188
Q42.6719 74.2188 48.875 69.1406
Q55.0781 64.0625 55.0781 55.3281
Q55.0781 49.0781 51.5312 44.7188
Q48 40.375 41.7031 38.8125
Q48.8281 37.1562 52.7969 32.3125
Q56.7812 27.4844 56.7812 20.5156
Q56.7812 9.90625 50.3125 4.23438
Q43.8438 -1.42188 31.7812 -1.42188
Q19.7344 -1.42188 13.25 4.23438
Q6.78125 9.90625 6.78125 20.5156
Q6.78125 27.4844 10.7812 32.3125
Q14.7969 37.1562 21.9219 38.8125
M18.3125 54.3906
Q18.3125 48.7344 21.8438 45.5625
Q25.3906 42.3906 31.7812 42.3906
Q38.1406 42.3906 41.7188 45.5625
Q45.3125 48.7344 45.3125 54.3906
Q45.3125 60.0625 41.7188 63.2344
Q38.1406 66.4062 31.7812 66.4062
Q25.3906 66.4062 21.8438 63.2344
Q18.3125 60.0625 18.3125 54.3906" id="BitstreamVeraSans-Roman-38"/>
      </defs>
      <g transform="translate(416.027556818 411.42625)scale(0.12 -0.12)">
       <use xlink:href="#BitstreamVeraSans-Roman-30"/>
       <use x="63.623046875" xlink:href="#BitstreamVeraSans-Roman-2e"/>
       <use x="95.41015625" xlink:href="#BitstreamVeraSans-Roman-38"/>
      </g>
     </g>
    </g>
    <g id="xtick_6">
     <g id="line2d_15">
      <defs>
       <path d="
M0 0
L0 -4" id="me87fc43251"/>
      </defs>
      <g>
       <use style="stroke:#000000;stroke-linecap:butt;stroke-width:0.5;" x="507.448636364" xlink:href="#me87fc43251" y="398.52"/>
      </g>
     </g>
     <g id="line2d_16">
      <defs>
       <path d="
M0 0
L0 4" id="m5bbe44d1da"/>
      </defs>
      <g>
       <use style="stroke:#000000;stroke-linecap:butt;stroke-width:0.5;" x="507.448636364" xlink:href="#m5bbe44d1da" y="44.28"/>
      </g>
     </g>
     <g id="text_6">
      <!-- 1.0 -->
      <defs>
       <path d="
M12.4062 8.29688
L28.5156 8.29688
L28.5156 63.9219
L10.9844 60.4062
L10.9844 69.3906
L28.4219 72.9062
L38.2812 72.9062
L38.2812 8.29688
L54.3906 8.29688
L54.3906 0
L12.4062 0
z
" id="BitstreamVeraSans-Roman-31"/>
      </defs>
      <g transform="translate(498.964261364 411.42625)scale(0.12 -0.12)">
       <use xlink:href="#BitstreamVeraSans-Roman-31"/>
       <use x="63.623046875" xlink:href="#BitstreamVeraSans-Roman-2e"/>
       <use x="95.41015625" xlink:href="#BitstreamVeraSans-Roman-30"/>
      </g>
     </g>
    </g>
    <g id="text_7">
     <!-- False Positive Rate -->
     <defs>
      <path id="BitstreamVeraSans-Roman-20"/>
      <path d="
M30.6094 48.3906
Q23.3906 48.3906 19.1875 42.75
Q14.9844 37.1094 14.9844 27.2969
Q14.9844 17.4844 19.1562 11.8438
Q23.3438 6.20312 30.6094 6.20312
Q37.7969 6.20312 41.9844 11.8594
Q46.1875 17.5312 46.1875 27.2969
Q46.1875 37.0156 41.9844 42.7031
Q37.7969 48.3906 30.6094 48.3906
M30.6094 56
Q42.3281 56 49.0156 48.375
Q55.7188 40.7656 55.7188 27.2969
Q55.7188 13.875 49.0156 6.21875
Q42.3281 -1.42188 30.6094 -1.42188
Q18.8438 -1.42188 12.1719 6.21875
Q5.51562 13.875 5.51562 27.2969
Q5.51562 40.7656 12.1719 48.375
Q18.8438 56 30.6094 56" id="BitstreamVeraSans-Roman-6f"/>
      <path d="
M9.42188 75.9844
L18.4062 75.9844
L18.4062 0
L9.42188 0
z
" id="BitstreamVeraSans-Roman-6c"/>
      <path d="
M19.6719 64.7969
L19.6719 37.4062
L32.0781 37.4062
Q38.9688 37.4062 42.7188 40.9688
Q46.4844 44.5312 46.4844 51.125
Q46.4844 57.6719 42.7188 61.2344
Q38.9688 64.7969 32.0781 64.7969
z

M9.8125 72.9062
L32.0781 72.9062
Q44.3438 72.9062 50.6094 67.3594
Q56.8906 61.8125 56.8906 51.125
Q56.8906 40.3281 50.6094 34.8125
Q44.3438 29.2969 32.0781 29.2969
L19.6719 29.2969
L19.6719 0
L9.8125 0
z
" id="BitstreamVeraSans-Roman-50"/>
      <path d="
M9.8125 72.9062
L51.7031 72.9062
L51.7031 64.5938
L19.6719 64.5938
L19.6719 43.1094
L48.5781 43.1094
L48.5781 34.8125
L19.6719 34.8125
L19.6719 0
L9.8125 0
z
" id="BitstreamVeraSans-Roman-46"/>
      <path d="
M44.3906 34.1875
Q47.5625 33.1094 50.5625 29.5938
Q53.5625 26.0781 56.5938 19.9219
L66.6094 0
L56 0
L46.6875 18.7031
Q43.0625 26.0312 39.6719 28.4219
Q36.2812 30.8125 30.4219 30.8125
L19.6719 30.8125
L19.6719 0
L9.8125 0
L9.8125 72.9062
L32.0781 72.9062
Q44.5781 72.9062 50.7344 67.6719
Q56.8906 62.4531 56.8906 51.9062
Q56.8906 45.0156 53.6875 40.4688
Q50.4844 35.9375 44.3906 34.1875
M19.6719 64.7969
L19.6719 38.9219
L32.0781 38.9219
Q39.2031 38.9219 42.8438 42.2188
Q46.4844 45.5156 46.4844 51.9062
Q46.4844 58.2969 42.8438 61.5469
Q39.2031 64.7969 32.0781 64.7969
z
" id="BitstreamVeraSans-Roman-52"/>
      <path d="
M9.42188 54.6875
L18.4062 54.6875
L18.4062 0
L9.42188 0
z

M9.42188 75.9844
L18.4062 75.9844
L18.4062 64.5938
L9.42188 64.5938
z
" id="BitstreamVeraSans-Roman-69"/>
      <path d="
M56.2031 29.5938
L56.2031 25.2031
L14.8906 25.2031
Q15.4844 15.9219 20.4844 11.0625
Q25.4844 6.20312 34.4219 6.20312
Q39.5938 6.20312 44.4531 7.46875
Q49.3125 8.73438 54.1094 11.2812
L54.1094 2.78125
Q49.2656 0.734375 44.1875 -0.34375
Q39.1094 -1.42188 33.8906 -1.42188
Q20.7969 -1.42188 13.1562 6.1875
Q5.51562 13.8125 5.51562 26.8125
Q5.51562 40.2344 12.7656 48.1094
Q20.0156 56 32.3281 56
Q43.3594 56 49.7812 48.8906
Q56.2031 41.7969 56.2031 29.5938
M47.2188 32.2344
Q47.125 39.5938 43.0938 43.9844
Q39.0625 48.3906 32.4219 48.3906
Q24.9062 48.3906 20.3906 44.1406
Q15.875 39.8906 15.1875 32.1719
z
" id="BitstreamVeraSans-Roman-65"/>
      <path d="
M18.3125 70.2188
L18.3125 54.6875
L36.8125 54.6875
L36.8125 47.7031
L18.3125 47.7031
L18.3125 18.0156
Q18.3125 11.3281 20.1406 9.42188
Q21.9688 7.51562 27.5938 7.51562
L36.8125 7.51562
L36.8125 0
L27.5938 0
Q17.1875 0 13.2344 3.875
Q9.28125 7.76562 9.28125 18.0156
L9.28125 47.7031
L2.6875 47.7031
L2.6875 54.6875
L9.28125 54.6875
L9.28125 70.2188
z
" id="BitstreamVeraSans-Roman-74"/>
      <path d="
M34.2812 27.4844
Q23.3906 27.4844 19.1875 25
Q14.9844 22.5156 14.9844 16.5
Q14.9844 11.7188 18.1406 8.90625
Q21.2969 6.10938 26.7031 6.10938
Q34.1875 6.10938 38.7031 11.4062
Q43.2188 16.7031 43.2188 25.4844
L43.2188 27.4844
z

M52.2031 31.2031
L52.2031 0
L43.2188 0
L43.2188 8.29688
Q40.1406 3.32812 35.5469 0.953125
Q30.9531 -1.42188 24.3125 -1.42188
Q15.9219 -1.42188 10.9531 3.29688
Q6 8.01562 6 15.9219
Q6 25.1406 12.1719 29.8281
Q18.3594 34.5156 30.6094 34.5156
L43.2188 34.5156
L43.2188 35.4062
Q43.2188 41.6094 39.1406 45
Q35.0625 48.3906 27.6875 48.3906
Q23 48.3906 18.5469 47.2656
Q14.1094 46.1406 10.0156 43.8906
L10.0156 52.2031
Q14.9375 54.1094 19.5781 55.0469
Q24.2188 56 28.6094 56
Q40.4844 56 46.3438 49.8438
Q52.2031 43.7031 52.2031 31.2031" id="BitstreamVeraSans-Roman-61"/>
      <path d="
M44.2812 53.0781
L44.2812 44.5781
Q40.4844 46.5312 36.375 47.5
Q32.2812 48.4844 27.875 48.4844
Q21.1875 48.4844 17.8438 46.4375
Q14.5 44.3906 14.5 40.2812
Q14.5 37.1562 16.8906 35.375
Q19.2812 33.5938 26.5156 31.9844
L29.5938 31.2969
Q39.1562 29.25 43.1875 25.5156
Q47.2188 21.7812 47.2188 15.0938
Q47.2188 7.46875 41.1875 3.01562
Q35.1562 -1.42188 24.6094 -1.42188
Q20.2188 -1.42188 15.4531 -0.5625
Q10.6875 0.296875 5.42188 2
L5.42188 11.2812
Q10.4062 8.6875 15.2344 7.39062
Q20.0625 6.10938 24.8125 6.10938
Q31.1562 6.10938 34.5625 8.28125
Q37.9844 10.4531 37.9844 14.4062
Q37.9844 18.0625 35.5156 20.0156
Q33.0625 21.9688 24.7031 23.7812
L21.5781 24.5156
Q13.2344 26.2656 9.51562 29.9062
Q5.8125 33.5469 5.8125 39.8906
Q5.8125 47.6094 11.2812 51.7969
Q16.75 56 26.8125 56
Q31.7812 56 36.1719 55.2656
Q40.5781 54.5469 44.2812 53.0781" id="BitstreamVeraSans-Roman-73"/>
      <path d="
M2.98438 54.6875
L12.5 54.6875
L29.5938 8.79688
L46.6875 54.6875
L56.2031 54.6875
L35.6875 0
L23.4844 0
z
" id="BitstreamVeraSans-Roman-76"/>
     </defs>
     <g transform="translate(245.295 425.715)scale(0.12 -0.12)">
      <use xlink:href="#BitstreamVeraSans-Roman-46"/>
      <use x="48.39453125" xlink:href="#BitstreamVeraSans-Roman-61"/>
      <use x="109.673828125" xlink:href="#BitstreamVeraSans-Roman-6c"/>
      <use x="137.45703125" xlink:href="#BitstreamVeraSans-Roman-73"/>
      <use x="189.556640625" xlink:href="#BitstreamVeraSans-Roman-65"/>
      <use x="251.080078125" xlink:href="#BitstreamVeraSans-Roman-20"/>
      <use x="282.8671875" xlink:href="#BitstreamVeraSans-Roman-50"/>
      <use x="339.544921875" xlink:href="#BitstreamVeraSans-Roman-6f"/>
      <use x="400.7265625" xlink:href="#BitstreamVeraSans-Roman-73"/>
      <use x="452.826171875" xlink:href="#BitstreamVeraSans-Roman-69"/>
      <use x="480.609375" xlink:href="#BitstreamVeraSans-Roman-74"/>
      <use x="519.818359375" xlink:href="#BitstreamVeraSans-Roman-69"/>
      <use x="547.6015625" xlink:href="#BitstreamVeraSans-Roman-76"/>
      <use x="606.78125" xlink:href="#BitstreamVeraSans-Roman-65"/>
      <use x="668.3046875" xlink:href="#BitstreamVeraSans-Roman-20"/>
      <use x="700.091796875" xlink:href="#BitstreamVeraSans-Roman-52"/>
      <use x="767.32421875" xlink:href="#BitstreamVeraSans-Roman-61"/>
      <use x="828.603515625" xlink:href="#BitstreamVeraSans-Roman-74"/>
      <use x="867.8125" xlink:href="#BitstreamVeraSans-Roman-65"/>
     </g>
    </g>
   </g>
   <g id="matplotlib.axis_2">
    <g id="ytick_1">
     <g id="line2d_17">
      <defs>
       <path d="
M0 0
L4 0" id="mc1da35907a"/>
      </defs>
      <g>
       <use style="stroke:#000000;stroke-linecap:butt;stroke-width:0.5;" x="73.35" xlink:href="#mc1da35907a" y="382.418181818"/>
      </g>
     </g>
     <g id="line2d_18">
      <defs>
       <path d="
M0 0
L-4 0" id="m78bab679d3"/>
      </defs>
      <g>
       <use style="stroke:#000000;stroke-linecap:butt;stroke-width:0.5;" x="528.12" xlink:href="#m78bab679d3" y="382.418181818"/>
      </g>
     </g>
     <g id="text_8">
      <!-- 0.0 -->
      <g transform="translate(51.854375 386.785994318)scale(0.12 -0.12)">
       <use xlink:href="#BitstreamVeraSans-Roman-30"/>
       <use x="63.623046875" xlink:href="#BitstreamVeraSans-Roman-2e"/>
       <use x="95.41015625" xlink:href="#BitstreamVeraSans-Roman-30"/>
      </g>
     </g>
    </g>
    <g id="ytick_2">
     <g id="line2d_19">
      <defs>
       <path d="
M0 0
L4 0" id="mc1da35907a"/>
      </defs>
      <g>
       <use style="stroke:#000000;stroke-linecap:butt;stroke-width:0.5;" x="73.35" xlink:href="#mc1da35907a" y="318.010909091"/>
      </g>
     </g>
     <g id="line2d_20">
      <defs>
       <path d="
M0 0
L-4 0" id="m78bab679d3"/>
      </defs>
      <g>
       <use style="stroke:#000000;stroke-linecap:butt;stroke-width:0.5;" x="528.12" xlink:href="#m78bab679d3" y="318.010909091"/>
      </g>
     </g>
     <g id="text_9">
      <!-- 0.2 -->
      <g transform="translate(52.259375 322.378721591)scale(0.12 -0.12)">
       <use xlink:href="#BitstreamVeraSans-Roman-30"/>
       <use x="63.623046875" xlink:href="#BitstreamVeraSans-Roman-2e"/>
       <use x="95.41015625" xlink:href="#BitstreamVeraSans-Roman-32"/>
      </g>
     </g>
    </g>
    <g id="ytick_3">
     <g id="line2d_21">
      <defs>
       <path d="
M0 0
L4 0" id="mc1da35907a"/>
      </defs>
      <g>
       <use style="stroke:#000000;stroke-linecap:butt;stroke-width:0.5;" x="73.35" xlink:href="#mc1da35907a" y="253.603636364"/>
      </g>
     </g>
     <g id="line2d_22">
      <defs>
       <path d="
M0 0
L-4 0" id="m78bab679d3"/>
      </defs>
      <g>
       <use style="stroke:#000000;stroke-linecap:butt;stroke-width:0.5;" x="528.12" xlink:href="#m78bab679d3" y="253.603636364"/>
      </g>
     </g>
     <g id="text_10">
      <!-- 0.4 -->
      <g transform="translate(51.730625 257.971448864)scale(0.12 -0.12)">
       <use xlink:href="#BitstreamVeraSans-Roman-30"/>
       <use x="63.623046875" xlink:href="#BitstreamVeraSans-Roman-2e"/>
       <use x="95.41015625" xlink:href="#BitstreamVeraSans-Roman-34"/>
      </g>
     </g>
    </g>
    <g id="ytick_4">
     <g id="line2d_23">
      <defs>
       <path d="
M0 0
L4 0" id="mc1da35907a"/>
      </defs>
      <g>
       <use style="stroke:#000000;stroke-linecap:butt;stroke-width:0.5;" x="73.35" xlink:href="#mc1da35907a" y="189.196363636"/>
      </g>
     </g>
     <g id="line2d_24">
      <defs>
       <path d="
M0 0
L-4 0" id="m78bab679d3"/>
      </defs>
      <g>
       <use style="stroke:#000000;stroke-linecap:butt;stroke-width:0.5;" x="528.12" xlink:href="#m78bab679d3" y="189.196363636"/>
      </g>
     </g>
     <g id="text_11">
      <!-- 0.6 -->
      <g transform="translate(51.813125 193.564176136)scale(0.12 -0.12)">
       <use xlink:href="#BitstreamVeraSans-Roman-30"/>
       <use x="63.623046875" xlink:href="#BitstreamVeraSans-Roman-2e"/>
       <use x="95.41015625" xlink:href="#BitstreamVeraSans-Roman-36"/>
      </g>
     </g>
    </g>
    <g id="ytick_5">
     <g id="line2d_25">
      <defs>
       <path d="
M0 0
L4 0" id="mc1da35907a"/>
      </defs>
      <g>
       <use style="stroke:#000000;stroke-linecap:butt;stroke-width:0.5;" x="73.35" xlink:href="#mc1da35907a" y="124.789090909"/>
      </g>
     </g>
     <g id="line2d_26">
      <defs>
       <path d="
M0 0
L-4 0" id="m78bab679d3"/>
      </defs>
      <g>
       <use style="stroke:#000000;stroke-linecap:butt;stroke-width:0.5;" x="528.12" xlink:href="#m78bab679d3" y="124.789090909"/>
      </g>
     </g>
     <g id="text_12">
      <!-- 0.8 -->
      <g transform="translate(51.87875 129.156903409)scale(0.12 -0.12)">
       <use xlink:href="#BitstreamVeraSans-Roman-30"/>
       <use x="63.623046875" xlink:href="#BitstreamVeraSans-Roman-2e"/>
       <use x="95.41015625" xlink:href="#BitstreamVeraSans-Roman-38"/>
      </g>
     </g>
    </g>
    <g id="ytick_6">
     <g id="line2d_27">
      <defs>
       <path d="
M0 0
L4 0" id="mc1da35907a"/>
      </defs>
      <g>
       <use style="stroke:#000000;stroke-linecap:butt;stroke-width:0.5;" x="73.35" xlink:href="#mc1da35907a" y="60.3818181818"/>
      </g>
     </g>
     <g id="line2d_28">
      <defs>
       <path d="
M0 0
L-4 0" id="m78bab679d3"/>
      </defs>
      <g>
       <use style="stroke:#000000;stroke-linecap:butt;stroke-width:0.5;" x="528.12" xlink:href="#m78bab679d3" y="60.3818181818"/>
      </g>
     </g>
     <g id="text_13">
      <!-- 1.0 -->
      <g transform="translate(52.38125 64.7496306818)scale(0.12 -0.12)">
       <use xlink:href="#BitstreamVeraSans-Roman-31"/>
       <use x="63.623046875" xlink:href="#BitstreamVeraSans-Roman-2e"/>
       <use x="95.41015625" xlink:href="#BitstreamVeraSans-Roman-30"/>
      </g>
     </g>
    </g>
    <g id="text_14">
     <!-- True Positive Rate -->
     <defs>
      <path d="
M41.1094 46.2969
Q39.5938 47.1719 37.8125 47.5781
Q36.0312 48 33.8906 48
Q26.2656 48 22.1875 43.0469
Q18.1094 38.0938 18.1094 28.8125
L18.1094 0
L9.07812 0
L9.07812 54.6875
L18.1094 54.6875
L18.1094 46.1875
Q20.9531 51.1719 25.4844 53.5781
Q30.0312 56 36.5312 56
Q37.4531 56 38.5781 55.875
Q39.7031 55.7656 41.0625 55.5156
z
" id="BitstreamVeraSans-Roman-72"/>
      <path d="
M8.5 21.5781
L8.5 54.6875
L17.4844 54.6875
L17.4844 21.9219
Q17.4844 14.1562 20.5 10.2656
Q23.5312 6.39062 29.5938 6.39062
Q36.8594 6.39062 41.0781 11.0312
Q45.3125 15.6719 45.3125 23.6875
L45.3125 54.6875
L54.2969 54.6875
L54.2969 0
L45.3125 0
L45.3125 8.40625
Q42.0469 3.42188 37.7188 1
Q33.4062 -1.42188 27.6875 -1.42188
Q18.2656 -1.42188 13.375 4.4375
Q8.5 10.2969 8.5 21.5781" id="BitstreamVeraSans-Roman-75"/>
      <path d="
M-0.296875 72.9062
L61.375 72.9062
L61.375 64.5938
L35.5 64.5938
L35.5 0
L25.5938 0
L25.5938 64.5938
L-0.296875 64.5938
z
" id="BitstreamVeraSans-Roman-54"/>
     </defs>
     <g transform="translate(46.730625 274.363125)rotate(-90.0)scale(0.12 -0.12)">
      <use xlink:href="#BitstreamVeraSans-Roman-54"/>
      <use x="46.333984375" xlink:href="#BitstreamVeraSans-Roman-72"/>
      <use x="87.447265625" xlink:href="#BitstreamVeraSans-Roman-75"/>
      <use x="150.826171875" xlink:href="#BitstreamVeraSans-Roman-65"/>
      <use x="212.349609375" xlink:href="#BitstreamVeraSans-Roman-20"/>
      <use x="244.13671875" xlink:href="#BitstreamVeraSans-Roman-50"/>
      <use x="300.814453125" xlink:href="#BitstreamVeraSans-Roman-6f"/>
      <use x="361.99609375" xlink:href="#BitstreamVeraSans-Roman-73"/>
      <use x="414.095703125" xlink:href="#BitstreamVeraSans-Roman-69"/>
      <use x="441.87890625" xlink:href="#BitstreamVeraSans-Roman-74"/>
      <use x="481.087890625" xlink:href="#BitstreamVeraSans-Roman-69"/>
      <use x="508.87109375" xlink:href="#BitstreamVeraSans-Roman-76"/>
      <use x="568.05078125" xlink:href="#BitstreamVeraSans-Roman-65"/>
      <use x="629.57421875" xlink:href="#BitstreamVeraSans-Roman-20"/>
      <use x="661.361328125" xlink:href="#BitstreamVeraSans-Roman-52"/>
      <use x="728.59375" xlink:href="#BitstreamVeraSans-Roman-61"/>
      <use x="789.873046875" xlink:href="#BitstreamVeraSans-Roman-74"/>
      <use x="829.08203125" xlink:href="#BitstreamVeraSans-Roman-65"/>
     </g>
    </g>
   </g>
   <g id="patch_3">
    <path d="
M73.35 44.28
L528.12 44.28" style="fill:none;stroke:#000000;"/>
   </g>
   <g id="patch_4">
    <path d="
M528.12 398.52
L528.12 44.28" style="fill:none;stroke:#000000;"/>
   </g>
   <g id="patch_5">
    <path d="
M73.35 398.52
L528.12 398.52" style="fill:none;stroke:#000000;"/>
   </g>
   <g id="patch_6">
    <path d="
M73.35 398.52
L73.35 44.28" style="fill:none;stroke:#000000;"/>
   </g>
   <g id="text_15">
    <!-- ROC Plot for 10-fold CV using tree -->
    <defs>
     <path d="
M39.4062 66.2188
Q28.6562 66.2188 22.3281 58.2031
Q16.0156 50.2031 16.0156 36.375
Q16.0156 22.6094 22.3281 14.5938
Q28.6562 6.59375 39.4062 6.59375
Q50.1406 6.59375 56.4219 14.5938
Q62.7031 22.6094 62.7031 36.375
Q62.7031 50.2031 56.4219 58.2031
Q50.1406 66.2188 39.4062 66.2188
M39.4062 74.2188
Q54.7344 74.2188 63.9062 63.9375
Q73.0938 53.6562 73.0938 36.375
Q73.0938 19.1406 63.9062 8.85938
Q54.7344 -1.42188 39.4062 -1.42188
Q24.0312 -1.42188 14.8125 8.82812
Q5.60938 19.0938 5.60938 36.375
Q5.60938 53.6562 14.8125 63.9375
Q24.0312 74.2188 39.4062 74.2188" id="BitstreamVeraSans-Roman-4f"/>
     <path d="
M54.8906 33.0156
L54.8906 0
L45.9062 0
L45.9062 32.7188
Q45.9062 40.4844 42.875 44.3281
Q39.8438 48.1875 33.7969 48.1875
Q26.5156 48.1875 22.3125 43.5469
Q18.1094 38.9219 18.1094 30.9062
L18.1094 0
L9.07812 0
L9.07812 54.6875
L18.1094 54.6875
L18.1094 46.1875
Q21.3438 51.125 25.7031 53.5625
Q30.0781 56 35.7969 56
Q45.2188 56 50.0469 50.1719
Q54.8906 44.3438 54.8906 33.0156" id="BitstreamVeraSans-Roman-6e"/>
     <path d="
M64.4062 67.2812
L64.4062 56.8906
Q59.4219 61.5312 53.7812 63.8125
Q48.1406 66.1094 41.7969 66.1094
Q29.2969 66.1094 22.6562 58.4688
Q16.0156 50.8281 16.0156 36.375
Q16.0156 21.9688 22.6562 14.3281
Q29.2969 6.6875 41.7969 6.6875
Q48.1406 6.6875 53.7812 8.98438
Q59.4219 11.2812 64.4062 15.9219
L64.4062 5.60938
Q59.2344 2.09375 53.4375 0.328125
Q47.6562 -1.42188 41.2188 -1.42188
Q24.6562 -1.42188 15.125 8.70312
Q5.60938 18.8438 5.60938 36.375
Q5.60938 53.9531 15.125 64.0781
Q24.6562 74.2188 41.2188 74.2188
Q47.75 74.2188 53.5312 72.4844
Q59.3281 70.75 64.4062 67.2812" id="BitstreamVeraSans-Roman-43"/>
     <path d="
M4.89062 31.3906
L31.2031 31.3906
L31.2031 23.3906
L4.89062 23.3906
z
" id="BitstreamVeraSans-Roman-2d"/>
     <path d="
M28.6094 0
L0.78125 72.9062
L11.0781 72.9062
L34.1875 11.5312
L57.3281 72.9062
L67.5781 72.9062
L39.7969 0
z
" id="BitstreamVeraSans-Roman-56"/>
     <path d="
M45.4062 46.3906
L45.4062 75.9844
L54.3906 75.9844
L54.3906 0
L45.4062 0
L45.4062 8.20312
Q42.5781 3.32812 38.25 0.953125
Q33.9375 -1.42188 27.875 -1.42188
Q17.9688 -1.42188 11.7344 6.48438
Q5.51562 14.4062 5.51562 27.2969
Q5.51562 40.1875 11.7344 48.0938
Q17.9688 56 27.875 56
Q33.9375 56 38.25 53.625
Q42.5781 51.2656 45.4062 46.3906
M14.7969 27.2969
Q14.7969 17.3906 18.875 11.75
Q22.9531 6.10938 30.0781 6.10938
Q37.2031 6.10938 41.2969 11.75
Q45.4062 17.3906 45.4062 27.2969
Q45.4062 37.2031 41.2969 42.8438
Q37.2031 48.4844 30.0781 48.4844
Q22.9531 48.4844 18.875 42.8438
Q14.7969 37.2031 14.7969 27.2969" id="BitstreamVeraSans-Roman-64"/>
     <path d="
M45.4062 27.9844
Q45.4062 37.75 41.375 43.1094
Q37.3594 48.4844 30.0781 48.4844
Q22.8594 48.4844 18.8281 43.1094
Q14.7969 37.75 14.7969 27.9844
Q14.7969 18.2656 18.8281 12.8906
Q22.8594 7.51562 30.0781 7.51562
Q37.3594 7.51562 41.375 12.8906
Q45.4062 18.2656 45.4062 27.9844
M54.3906 6.78125
Q54.3906 -7.17188 48.1875 -13.9844
Q42 -20.7969 29.2031 -20.7969
Q24.4688 -20.7969 20.2656 -20.0938
Q16.0625 -19.3906 12.1094 -17.9219
L12.1094 -9.1875
Q16.0625 -11.3281 19.9219 -12.3438
Q23.7812 -13.375 27.7812 -13.375
Q36.625 -13.375 41.0156 -8.76562
Q45.4062 -4.15625 45.4062 5.17188
L45.4062 9.625
Q42.625 4.78125 38.2812 2.39062
Q33.9375 0 27.875 0
Q17.8281 0 11.6719 7.65625
Q5.51562 15.3281 5.51562 27.9844
Q5.51562 40.6719 11.6719 48.3281
Q17.8281 56 27.875 56
Q33.9375 56 38.2812 53.6094
Q42.625 51.2188 45.4062 46.3906
L45.4062 54.6875
L54.3906 54.6875
z
" id="BitstreamVeraSans-Roman-67"/>
     <path d="
M37.1094 75.9844
L37.1094 68.5
L28.5156 68.5
Q23.6875 68.5 21.7969 66.5469
Q19.9219 64.5938 19.9219 59.5156
L19.9219 54.6875
L34.7188 54.6875
L34.7188 47.7031
L19.9219 47.7031
L19.9219 0
L10.8906 0
L10.8906 47.7031
L2.29688 47.7031
L2.29688 54.6875
L10.8906 54.6875
L10.8906 58.5
Q10.8906 67.625 15.1406 71.7969
Q19.3906 75.9844 28.6094 75.9844
z
" id="BitstreamVeraSans-Roman-66"/>
    </defs>
    <g transform="translate(179.0685 39.28)scale(0.144 -0.144)">
     <use xlink:href="#BitstreamVeraSans-Roman-52"/>
     <use x="69.482421875" xlink:href="#BitstreamVeraSans-Roman-4f"/>
     <use x="148.193359375" xlink:href="#BitstreamVeraSans-Roman-43"/>
     <use x="218.017578125" xlink:href="#BitstreamVeraSans-Roman-20"/>
     <use x="249.8046875" xlink:href="#BitstreamVeraSans-Roman-50"/>
     <use x="310.107421875" xlink:href="#BitstreamVeraSans-Roman-6c"/>
     <use x="337.890625" xlink:href="#BitstreamVeraSans-Roman-6f"/>
     <use x="399.072265625" xlink:href="#BitstreamVeraSans-Roman-74"/>
     <use x="438.28125" xlink:href="#BitstreamVeraSans-Roman-20"/>
     <use x="470.068359375" xlink:href="#BitstreamVeraSans-Roman-66"/>
     <use x="505.2734375" xlink:href="#BitstreamVeraSans-Roman-6f"/>
     <use x="566.455078125" xlink:href="#BitstreamVeraSans-Roman-72"/>
     <use x="607.568359375" xlink:href="#BitstreamVeraSans-Roman-20"/>
     <use x="639.35546875" xlink:href="#BitstreamVeraSans-Roman-31"/>
     <use x="702.978515625" xlink:href="#BitstreamVeraSans-Roman-30"/>
     <use x="766.6015625" xlink:href="#BitstreamVeraSans-Roman-2d"/>
     <use x="802.685546875" xlink:href="#BitstreamVeraSans-Roman-66"/>
     <use x="837.890625" xlink:href="#BitstreamVeraSans-Roman-6f"/>
     <use x="899.072265625" xlink:href="#BitstreamVeraSans-Roman-6c"/>
     <use x="926.85546875" xlink:href="#BitstreamVeraSans-Roman-64"/>
     <use x="990.33203125" xlink:href="#BitstreamVeraSans-Roman-20"/>
     <use x="1022.11914062" xlink:href="#BitstreamVeraSans-Roman-43"/>
     <use x="1091.94335938" xlink:href="#BitstreamVeraSans-Roman-56"/>
     <use x="1160.3515625" xlink:href="#BitstreamVeraSans-Roman-20"/>
     <use x="1192.13867188" xlink:href="#BitstreamVeraSans-Roman-75"/>
     <use x="1255.51757812" xlink:href="#BitstreamVeraSans-Roman-73"/>
     <use x="1307.6171875" xlink:href="#BitstreamVeraSans-Roman-69"/>
     <use x="1335.40039062" xlink:href="#BitstreamVeraSans-Roman-6e"/>
     <use x="1398.77929688" xlink:href="#BitstreamVeraSans-Roman-67"/>
     <use x="1462.25585938" xlink:href="#BitstreamVeraSans-Roman-20"/>
     <use x="1494.04296875" xlink:href="#BitstreamVeraSans-Roman-74"/>
     <use x="1533.25195312" xlink:href="#BitstreamVeraSans-Roman-72"/>
     <use x="1572.11523438" xlink:href="#BitstreamVeraSans-Roman-65"/>
     <use x="1633.63867188" xlink:href="#BitstreamVeraSans-Roman-65"/>
    </g>
   </g>
   <g id="legend_1">
    <g id="patch_7">
     <path d="
M268.409 391.32
L520.92 391.32
L520.92 305.244
L268.409 305.244
L268.409 391.32
z
" style="fill:#ffffff;stroke:#000000;"/>
    </g>
    <g id="line2d_29">
     <path d="
M278.489 316.906
L298.649 316.906" style="fill:none;stroke:#0000ff;"/>
    </g>
    <g id="line2d_30"/>
    <g id="text_16">
     <!-- 87 features (area = 0.76) -->
     <defs>
      <path d="
M8.01562 75.875
L15.8281 75.875
Q23.1406 64.3594 26.7812 53.3125
Q30.4219 42.2812 30.4219 31.3906
Q30.4219 20.4531 26.7812 9.375
Q23.1406 -1.70312 15.8281 -13.1875
L8.01562 -13.1875
Q14.5 -2 17.7031 9.0625
Q20.9062 20.125 20.9062 31.3906
Q20.9062 42.6719 17.7031 53.6562
Q14.5 64.6562 8.01562 75.875" id="BitstreamVeraSans-Roman-29"/>
      <path d="
M31 75.875
Q24.4688 64.6562 21.2812 53.6562
Q18.1094 42.6719 18.1094 31.3906
Q18.1094 20.125 21.3125 9.0625
Q24.5156 -2 31 -13.1875
L23.1875 -13.1875
Q15.875 -1.70312 12.2344 9.375
Q8.59375 20.4531 8.59375 31.3906
Q8.59375 42.2812 12.2031 53.3125
Q15.8281 64.3594 23.1875 75.875
z
" id="BitstreamVeraSans-Roman-28"/>
      <path d="
M8.20312 72.9062
L55.0781 72.9062
L55.0781 68.7031
L28.6094 0
L18.3125 0
L43.2188 64.5938
L8.20312 64.5938
z
" id="BitstreamVeraSans-Roman-37"/>
      <path d="
M10.5938 45.4062
L73.1875 45.4062
L73.1875 37.2031
L10.5938 37.2031
z

M10.5938 25.4844
L73.1875 25.4844
L73.1875 17.1875
L10.5938 17.1875
z
" id="BitstreamVeraSans-Roman-3d"/>
     </defs>
     <g transform="translate(314.48925 321.94575)scale(0.144 -0.144)">
      <use xlink:href="#BitstreamVeraSans-Roman-38"/>
      <use x="63.623046875" xlink:href="#BitstreamVeraSans-Roman-37"/>
      <use x="127.24609375" xlink:href="#BitstreamVeraSans-Roman-20"/>
      <use x="159.033203125" xlink:href="#BitstreamVeraSans-Roman-66"/>
      <use x="194.23828125" xlink:href="#BitstreamVeraSans-Roman-65"/>
      <use x="255.76171875" xlink:href="#BitstreamVeraSans-Roman-61"/>
      <use x="317.041015625" xlink:href="#BitstreamVeraSans-Roman-74"/>
      <use x="356.25" xlink:href="#BitstreamVeraSans-Roman-75"/>
      <use x="419.62890625" xlink:href="#BitstreamVeraSans-Roman-72"/>
      <use x="458.4921875" xlink:href="#BitstreamVeraSans-Roman-65"/>
      <use x="520.015625" xlink:href="#BitstreamVeraSans-Roman-73"/>
      <use x="572.115234375" xlink:href="#BitstreamVeraSans-Roman-20"/>
      <use x="603.90234375" xlink:href="#BitstreamVeraSans-Roman-28"/>
      <use x="642.916015625" xlink:href="#BitstreamVeraSans-Roman-61"/>
      <use x="704.1953125" xlink:href="#BitstreamVeraSans-Roman-72"/>
      <use x="743.05859375" xlink:href="#BitstreamVeraSans-Roman-65"/>
      <use x="804.58203125" xlink:href="#BitstreamVeraSans-Roman-61"/>
      <use x="865.861328125" xlink:href="#BitstreamVeraSans-Roman-20"/>
      <use x="897.6484375" xlink:href="#BitstreamVeraSans-Roman-3d"/>
      <use x="981.4375" xlink:href="#BitstreamVeraSans-Roman-20"/>
      <use x="1013.22460938" xlink:href="#BitstreamVeraSans-Roman-30"/>
      <use x="1076.84765625" xlink:href="#BitstreamVeraSans-Roman-2e"/>
      <use x="1108.63476562" xlink:href="#BitstreamVeraSans-Roman-37"/>
      <use x="1172.2578125" xlink:href="#BitstreamVeraSans-Roman-36"/>
      <use x="1235.88085938" xlink:href="#BitstreamVeraSans-Roman-29"/>
     </g>
    </g>
    <g id="line2d_31">
     <path d="
M278.489 338.042
L298.649 338.042" style="fill:none;stroke:#008000;"/>
    </g>
    <g id="line2d_32"/>
    <g id="text_17">
     <!-- 433 features (area = 0.79) -->
     <defs>
      <path d="
M40.5781 39.3125
Q47.6562 37.7969 51.625 33
Q55.6094 28.2188 55.6094 21.1875
Q55.6094 10.4062 48.1875 4.48438
Q40.7656 -1.42188 27.0938 -1.42188
Q22.5156 -1.42188 17.6562 -0.515625
Q12.7969 0.390625 7.625 2.20312
L7.625 11.7188
Q11.7188 9.32812 16.5938 8.10938
Q21.4844 6.89062 26.8125 6.89062
Q36.0781 6.89062 40.9375 10.5469
Q45.7969 14.2031 45.7969 21.1875
Q45.7969 27.6406 41.2812 31.2656
Q36.7656 34.9062 28.7188 34.9062
L20.2188 34.9062
L20.2188 43.0156
L29.1094 43.0156
Q36.375 43.0156 40.2344 45.9219
Q44.0938 48.8281 44.0938 54.2969
Q44.0938 59.9062 40.1094 62.9062
Q36.1406 65.9219 28.7188 65.9219
Q24.6562 65.9219 20.0156 65.0312
Q15.375 64.1562 9.8125 62.3125
L9.8125 71.0938
Q15.4375 72.6562 20.3438 73.4375
Q25.25 74.2188 29.5938 74.2188
Q40.8281 74.2188 47.3594 69.1094
Q53.9062 64.0156 53.9062 55.3281
Q53.9062 49.2656 50.4375 45.0938
Q46.9688 40.9219 40.5781 39.3125" id="BitstreamVeraSans-Roman-33"/>
      <path d="
M10.9844 1.51562
L10.9844 10.5
Q14.7031 8.73438 18.5 7.8125
Q22.3125 6.89062 25.9844 6.89062
Q35.75 6.89062 40.8906 13.4531
Q46.0469 20.0156 46.7812 33.4062
Q43.9531 29.2031 39.5938 26.9531
Q35.25 24.7031 29.9844 24.7031
Q19.0469 24.7031 12.6719 31.3125
Q6.29688 37.9375 6.29688 49.4219
Q6.29688 60.6406 12.9375 67.4219
Q19.5781 74.2188 30.6094 74.2188
Q43.2656 74.2188 49.9219 64.5156
Q56.5938 54.8281 56.5938 36.375
Q56.5938 19.1406 48.4062 8.85938
Q40.2344 -1.42188 26.4219 -1.42188
Q22.7031 -1.42188 18.8906 -0.6875
Q15.0938 0.046875 10.9844 1.51562
M30.6094 32.4219
Q37.25 32.4219 41.125 36.9531
Q45.0156 41.5 45.0156 49.4219
Q45.0156 57.2812 41.125 61.8438
Q37.25 66.4062 30.6094 66.4062
Q23.9688 66.4062 20.0938 61.8438
Q16.2188 57.2812 16.2188 49.4219
Q16.2188 41.5 20.0938 36.9531
Q23.9688 32.4219 30.6094 32.4219" id="BitstreamVeraSans-Roman-39"/>
     </defs>
     <g transform="translate(314.48925 343.08225)scale(0.144 -0.144)">
      <use xlink:href="#BitstreamVeraSans-Roman-34"/>
      <use x="63.623046875" xlink:href="#BitstreamVeraSans-Roman-33"/>
      <use x="127.24609375" xlink:href="#BitstreamVeraSans-Roman-33"/>
      <use x="190.869140625" xlink:href="#BitstreamVeraSans-Roman-20"/>
      <use x="222.65625" xlink:href="#BitstreamVeraSans-Roman-66"/>
      <use x="257.861328125" xlink:href="#BitstreamVeraSans-Roman-65"/>
      <use x="319.384765625" xlink:href="#BitstreamVeraSans-Roman-61"/>
      <use x="380.6640625" xlink:href="#BitstreamVeraSans-Roman-74"/>
      <use x="419.873046875" xlink:href="#BitstreamVeraSans-Roman-75"/>
      <use x="483.251953125" xlink:href="#BitstreamVeraSans-Roman-72"/>
      <use x="522.115234375" xlink:href="#BitstreamVeraSans-Roman-65"/>
      <use x="583.638671875" xlink:href="#BitstreamVeraSans-Roman-73"/>
      <use x="635.73828125" xlink:href="#BitstreamVeraSans-Roman-20"/>
      <use x="667.525390625" xlink:href="#BitstreamVeraSans-Roman-28"/>
      <use x="706.5390625" xlink:href="#BitstreamVeraSans-Roman-61"/>
      <use x="767.818359375" xlink:href="#BitstreamVeraSans-Roman-72"/>
      <use x="806.681640625" xlink:href="#BitstreamVeraSans-Roman-65"/>
      <use x="868.205078125" xlink:href="#BitstreamVeraSans-Roman-61"/>
      <use x="929.484375" xlink:href="#BitstreamVeraSans-Roman-20"/>
      <use x="961.271484375" xlink:href="#BitstreamVeraSans-Roman-3d"/>
      <use x="1045.06054688" xlink:href="#BitstreamVeraSans-Roman-20"/>
      <use x="1076.84765625" xlink:href="#BitstreamVeraSans-Roman-30"/>
      <use x="1140.47070312" xlink:href="#BitstreamVeraSans-Roman-2e"/>
      <use x="1172.2578125" xlink:href="#BitstreamVeraSans-Roman-37"/>
      <use x="1235.88085938" xlink:href="#BitstreamVeraSans-Roman-39"/>
      <use x="1299.50390625" xlink:href="#BitstreamVeraSans-Roman-29"/>
     </g>
    </g>
    <g id="line2d_33">
     <path d="
M278.489 359.179
L298.649 359.179" style="fill:none;stroke:#ff0000;"/>
    </g>
    <g id="line2d_34"/>
    <g id="text_18">
     <!-- 2163 features (area = 0.81) -->
     <g transform="translate(314.48925 364.21875)scale(0.144 -0.144)">
      <use xlink:href="#BitstreamVeraSans-Roman-32"/>
      <use x="63.623046875" xlink:href="#BitstreamVeraSans-Roman-31"/>
      <use x="127.24609375" xlink:href="#BitstreamVeraSans-Roman-36"/>
      <use x="190.869140625" xlink:href="#BitstreamVeraSans-Roman-33"/>
      <use x="254.4921875" xlink:href="#BitstreamVeraSans-Roman-20"/>
      <use x="286.279296875" xlink:href="#BitstreamVeraSans-Roman-66"/>
      <use x="321.484375" xlink:href="#BitstreamVeraSans-Roman-65"/>
      <use x="383.0078125" xlink:href="#BitstreamVeraSans-Roman-61"/>
      <use x="444.287109375" xlink:href="#BitstreamVeraSans-Roman-74"/>
      <use x="483.49609375" xlink:href="#BitstreamVeraSans-Roman-75"/>
      <use x="546.875" xlink:href="#BitstreamVeraSans-Roman-72"/>
      <use x="585.73828125" xlink:href="#BitstreamVeraSans-Roman-65"/>
      <use x="647.26171875" xlink:href="#BitstreamVeraSans-Roman-73"/>
      <use x="699.361328125" xlink:href="#BitstreamVeraSans-Roman-20"/>
      <use x="731.1484375" xlink:href="#BitstreamVeraSans-Roman-28"/>
      <use x="770.162109375" xlink:href="#BitstreamVeraSans-Roman-61"/>
      <use x="831.44140625" xlink:href="#BitstreamVeraSans-Roman-72"/>
      <use x="870.3046875" xlink:href="#BitstreamVeraSans-Roman-65"/>
      <use x="931.828125" xlink:href="#BitstreamVeraSans-Roman-61"/>
      <use x="993.107421875" xlink:href="#BitstreamVeraSans-Roman-20"/>
      <use x="1024.89453125" xlink:href="#BitstreamVeraSans-Roman-3d"/>
      <use x="1108.68359375" xlink:href="#BitstreamVeraSans-Roman-20"/>
      <use x="1140.47070312" xlink:href="#BitstreamVeraSans-Roman-30"/>
      <use x="1204.09375" xlink:href="#BitstreamVeraSans-Roman-2e"/>
      <use x="1235.88085938" xlink:href="#BitstreamVeraSans-Roman-38"/>
      <use x="1299.50390625" xlink:href="#BitstreamVeraSans-Roman-31"/>
      <use x="1363.12695312" xlink:href="#BitstreamVeraSans-Roman-29"/>
     </g>
    </g>
    <g id="line2d_35">
     <path d="
M278.489 380.315
L298.649 380.315" style="fill:none;stroke:#999999;stroke-dasharray:6.000000,6.000000;stroke-dashoffset:0.0;stroke-linecap:butt;"/>
    </g>
    <g id="line2d_36"/>
    <g id="text_19">
     <!-- Luck -->
     <defs>
      <path d="
M9.8125 72.9062
L19.6719 72.9062
L19.6719 8.29688
L55.1719 8.29688
L55.1719 0
L9.8125 0
z
" id="BitstreamVeraSans-Roman-4c"/>
      <path d="
M48.7812 52.5938
L48.7812 44.1875
Q44.9688 46.2969 41.1406 47.3438
Q37.3125 48.3906 33.4062 48.3906
Q24.6562 48.3906 19.8125 42.8438
Q14.9844 37.3125 14.9844 27.2969
Q14.9844 17.2812 19.8125 11.7344
Q24.6562 6.20312 33.4062 6.20312
Q37.3125 6.20312 41.1406 7.25
Q44.9688 8.29688 48.7812 10.4062
L48.7812 2.09375
Q45.0156 0.34375 40.9844 -0.53125
Q36.9688 -1.42188 32.4219 -1.42188
Q20.0625 -1.42188 12.7812 6.34375
Q5.51562 14.1094 5.51562 27.2969
Q5.51562 40.6719 12.8594 48.3281
Q20.2188 56 33.0156 56
Q37.1562 56 41.1094 55.1406
Q45.0625 54.2969 48.7812 52.5938" id="BitstreamVeraSans-Roman-63"/>
      <path d="
M9.07812 75.9844
L18.1094 75.9844
L18.1094 31.1094
L44.9219 54.6875
L56.3906 54.6875
L27.3906 29.1094
L57.625 0
L45.9062 0
L18.1094 26.7031
L18.1094 0
L9.07812 0
z
" id="BitstreamVeraSans-Roman-6b"/>
     </defs>
     <g transform="translate(314.48925 385.35525)scale(0.144 -0.144)">
      <use xlink:href="#BitstreamVeraSans-Roman-4c"/>
      <use x="53.962890625" xlink:href="#BitstreamVeraSans-Roman-75"/>
      <use x="117.341796875" xlink:href="#BitstreamVeraSans-Roman-63"/>
      <use x="172.322265625" xlink:href="#BitstreamVeraSans-Roman-6b"/>
     </g>
    </g>
   </g>
  </g>
 </g>
 <defs>
  <clipPath id="p9061672a36">
   <rect height="354.24" width="454.77" x="73.35" y="44.28"/>
  </clipPath>
 </defs>
</svg>
